<svg width="32" height="32" viewBox="0 0 32 32" fill="none" xmlns="http://www.w3.org/2000/svg">
<path fill-rule="evenodd" clip-rule="evenodd" d="M22.5421 1.14749L22.6403 1.17428C24.2777 1.6134 25.5742 1.96022 26.5938 2.32938C27.6373 2.70597 28.4887 3.13616 29.1898 3.7926C30.2102 4.74901 30.924 5.98655 31.241 7.34869C31.4598 8.28348 31.4077 9.23614 31.2112 10.3272C31.0222 11.396 30.6754 12.6925 30.2363 14.3284L29.4384 17.3039C29.0008 18.9398 28.6525 20.2363 28.2848 21.2575C27.9067 22.2994 27.4765 23.1509 26.8201 23.852C25.8949 24.8399 24.7056 25.5414 23.3935 25.8734C23.0091 26.7548 22.4489 27.5484 21.7472 28.2059C21.0461 28.8624 20.1947 29.2925 19.1512 29.6706C18.1316 30.0398 16.8351 30.3866 15.1992 30.8257L15.0994 30.8525C13.4621 31.2901 12.167 31.637 11.0983 31.829C10.0072 32.024 9.05454 32.0761 8.11825 31.8588C6.7563 31.5407 5.51928 30.8258 4.56365 29.8046C3.9087 29.105 3.47703 28.2535 3.09895 27.2101C2.73128 26.1905 2.38445 24.8939 1.94534 23.2566L1.14749 20.2825C0.709861 18.6451 0.361546 17.3501 0.171015 16.2813C-0.0239822 15.1902 -0.0760806 14.2376 0.141244 13.3013C0.45933 11.9393 1.17419 10.7023 2.19541 9.7467C2.89502 9.09175 3.74645 8.66008 4.78991 8.28199C5.80955 7.91433 7.10606 7.5675 8.74195 7.12839L8.79256 7.1135L9.91044 6.81579C10.4939 4.73335 11.006 3.26119 12.0063 2.19392C12.9621 1.17325 14.1991 0.458917 15.5609 0.141244C16.4972 -0.0760806 17.4483 -0.0239822 18.5409 0.171015C19.6082 0.361546 20.9047 0.709861 22.5421 1.14749ZM9.23614 9.30759C7.60918 9.74373 6.44366 10.0593 5.54757 10.3823C4.63957 10.7098 4.10817 11.0134 3.72115 11.3766C3.02251 12.0306 2.5335 12.877 2.31598 13.8089C2.1969 14.3269 2.19839 14.9402 2.36957 15.8884C2.54075 16.8514 2.86376 18.0571 3.31776 19.7541L4.08882 22.6299C4.54282 24.3268 4.86731 25.5325 5.19926 26.4509C5.52673 27.3589 5.83039 27.8918 6.19359 28.2789C6.84752 28.9775 7.69396 29.4665 8.62584 29.684C9.14236 29.8031 9.75712 29.8001 10.7053 29.6304C11.6684 29.4593 12.8741 29.1362 14.571 28.6822C16.2679 28.2268 17.4736 27.9037 18.3936 27.5703C19.3001 27.2428 19.833 26.9392 20.22 26.5775C20.4254 26.384 20.6119 26.1761 20.7797 25.9538C20.5035 25.9144 20.2285 25.8672 19.955 25.8124C18.9547 25.6129 17.752 25.2914 16.2709 24.8939L16.1846 24.8716C14.5487 24.4325 13.2522 24.0857 12.2325 23.7165C11.1891 23.3399 10.3376 22.9097 9.63655 22.2533C8.61563 21.2971 7.90127 20.0595 7.58387 18.6972C7.36655 17.7624 7.41865 16.8098 7.61364 15.7187C7.80418 14.6499 8.15249 13.3534 8.59012 11.7175L9.23614 9.30759ZM18.1479 2.36957C17.1983 2.19839 16.585 2.19541 16.0685 2.31598C15.1366 2.5335 14.2902 3.02251 13.6362 3.72115C12.9872 4.41331 12.5868 5.48505 11.8932 8.02746L11.5314 9.37011L10.7604 12.2459C10.3064 13.9429 9.98338 15.1486 9.8122 16.1116C9.64102 17.0598 9.63804 17.6746 9.75861 18.1911C9.97613 19.123 10.4651 19.9694 11.1638 20.6234C11.5508 20.9866 12.0837 21.2887 12.9902 21.6177C13.9101 21.9496 15.1158 22.2726 16.8127 22.7281C18.3385 23.1375 19.4698 23.4397 20.3897 23.6213C21.3051 23.8043 21.9273 23.849 22.4364 23.7865C22.5475 23.7716 22.6547 23.7527 22.7579 23.7299C23.6898 23.5124 24.5362 23.0234 25.1902 22.3247C25.5534 21.9377 25.857 21.4048 26.1845 20.4983C26.5164 19.5784 26.8394 18.3727 27.2949 16.6758L28.066 13.8C28.52 12.103 28.843 10.8973 29.0142 9.93426C29.1839 8.98607 29.1883 8.3713 29.0678 7.85479C28.8502 6.9229 28.3612 6.07647 27.6626 5.42253C27.2756 5.05933 26.7427 4.75716 25.8362 4.4282C24.9148 4.09626 23.7106 3.77325 22.0136 3.31776C20.3167 2.86376 19.111 2.54075 18.1479 2.36957ZM14.5904 12.7357C14.6284 12.594 14.6939 12.4613 14.7832 12.345C14.8725 12.2286 14.9839 12.1311 15.1109 12.0578C15.2379 11.9845 15.3782 11.937 15.5236 11.918C15.669 11.8989 15.8167 11.9087 15.9583 11.9467L23.1479 13.8729C23.426 13.9565 23.6605 14.1452 23.8018 14.3988C23.9431 14.6525 23.9799 14.9512 23.9046 15.2317C23.8293 15.5121 23.6477 15.7521 23.3983 15.9008C23.1489 16.0496 22.8514 16.0953 22.5689 16.0283L15.3793 14.1021C15.0936 14.0254 14.85 13.8384 14.7021 13.5821C14.5541 13.3259 14.514 13.0215 14.5904 12.7357ZM13.4338 17.0494C13.4718 16.9076 13.5373 16.7747 13.6268 16.6583C13.7162 16.5418 13.8277 16.4442 13.9549 16.3709C14.0821 16.2976 14.2225 16.2502 14.3681 16.2312C14.5136 16.2123 14.6615 16.2222 14.8032 16.2605L19.1155 17.4156C19.4015 17.4922 19.6454 17.6792 19.7935 17.9357C19.9416 18.1921 19.9817 18.4968 19.9051 18.7828C19.8286 19.0688 19.6415 19.3127 19.3851 19.4608C19.1287 19.6089 18.824 19.6491 18.5379 19.5725L14.2242 18.4159C13.9385 18.3391 13.6949 18.1521 13.547 17.8959C13.399 17.6397 13.3589 17.3352 13.4353 17.0494" fill="white"/>
<path fill-rule="evenodd" clip-rule="evenodd" d="M22.5421 1.14749L22.6403 1.17428C24.2777 1.6134 25.5742 1.96022 26.5938 2.32938C27.6373 2.70597 28.4887 3.13616 29.1898 3.7926C30.2102 4.74901 30.924 5.98655 31.241 7.34869C31.4598 8.28348 31.4077 9.23614 31.2112 10.3272C31.0222 11.396 30.6754 12.6925 30.2363 14.3284L29.4384 17.3039C29.0008 18.9398 28.6525 20.2363 28.2848 21.2575C27.9067 22.2994 27.4765 23.1509 26.8201 23.852C25.8949 24.8399 24.7056 25.5414 23.3935 25.8734C23.0091 26.7548 22.4489 27.5484 21.7472 28.2059C21.0461 28.8624 20.1947 29.2925 19.1512 29.6706C18.1316 30.0398 16.8351 30.3866 15.1992 30.8257L15.0994 30.8525C13.4621 31.2901 12.167 31.637 11.0983 31.829C10.0072 32.024 9.05454 32.0761 8.11825 31.8588C6.7563 31.5407 5.51928 30.8258 4.56365 29.8046C3.9087 29.105 3.47703 28.2535 3.09895 27.2101C2.73128 26.1905 2.38445 24.8939 1.94534 23.2566L1.14749 20.2825C0.709861 18.6451 0.361546 17.3501 0.171015 16.2813C-0.0239822 15.1902 -0.0760806 14.2376 0.141244 13.3013C0.45933 11.9393 1.17419 10.7023 2.19541 9.7467C2.89502 9.09175 3.74645 8.66008 4.78991 8.28199C5.80955 7.91433 7.10606 7.5675 8.74195 7.12839L8.79256 7.1135L9.91044 6.81579C10.4939 4.73335 11.006 3.26119 12.0063 2.19392C12.9621 1.17325 14.1991 0.458917 15.5609 0.141244C16.4972 -0.0760806 17.4483 -0.0239822 18.5409 0.171015C19.6082 0.361546 20.9047 0.709861 22.5421 1.14749ZM9.23614 9.30759C7.60918 9.74373 6.44366 10.0593 5.54757 10.3823C4.63957 10.7098 4.10817 11.0134 3.72115 11.3766C3.02251 12.0306 2.5335 12.877 2.31598 13.8089C2.1969 14.3269 2.19839 14.9402 2.36957 15.8884C2.54075 16.8514 2.86376 18.0571 3.31776 19.7541L4.08882 22.6299C4.54282 24.3268 4.86731 25.5325 5.19926 26.4509C5.52673 27.3589 5.83039 27.8918 6.19359 28.2789C6.84752 28.9775 7.69396 29.4665 8.62584 29.684C9.14236 29.8031 9.75712 29.8001 10.7053 29.6304C11.6684 29.4593 12.8741 29.1362 14.571 28.6822C16.2679 28.2268 17.4736 27.9037 18.3936 27.5703C19.3001 27.2428 19.833 26.9392 20.22 26.5775C20.4254 26.384 20.6119 26.1761 20.7797 25.9538C20.5035 25.9144 20.2285 25.8672 19.955 25.8124C18.9547 25.6129 17.752 25.2914 16.2709 24.8939L16.1846 24.8716C14.5487 24.4325 13.2522 24.0857 12.2325 23.7165C11.1891 23.3399 10.3376 22.9097 9.63655 22.2533C8.61563 21.2971 7.90127 20.0595 7.58387 18.6972C7.36655 17.7624 7.41865 16.8098 7.61364 15.7187C7.80418 14.6499 8.15249 13.3534 8.59012 11.7175L9.23614 9.30759ZM18.1479 2.36957C17.1983 2.19839 16.585 2.19541 16.0685 2.31598C15.1366 2.5335 14.2902 3.02251 13.6362 3.72115C12.9872 4.41331 12.5868 5.48505 11.8932 8.02746L11.5314 9.37011L10.7604 12.2459C10.3064 13.9429 9.98338 15.1486 9.8122 16.1116C9.64102 17.0598 9.63804 17.6746 9.75861 18.1911C9.97613 19.123 10.4651 19.9694 11.1638 20.6234C11.5508 20.9866 12.0837 21.2887 12.9902 21.6177C13.9101 21.9496 15.1158 22.2726 16.8127 22.7281C18.3385 23.1375 19.4698 23.4397 20.3897 23.6213C21.3051 23.8043 21.9273 23.849 22.4364 23.7865C22.5475 23.7716 22.6547 23.7527 22.7579 23.7299C23.6898 23.5124 24.5362 23.0234 25.1902 22.3247C25.5534 21.9377 25.857 21.4048 26.1845 20.4983C26.5164 19.5784 26.8394 18.3727 27.2949 16.6758L28.066 13.8C28.52 12.103 28.843 10.8973 29.0142 9.93426C29.1839 8.98607 29.1883 8.3713 29.0678 7.85479C28.8502 6.9229 28.3612 6.07647 27.6626 5.42253C27.2756 5.05933 26.7427 4.75716 25.8362 4.4282C24.9148 4.09626 23.7106 3.77325 22.0136 3.31776C20.3167 2.86376 19.111 2.54075 18.1479 2.36957ZM14.5904 12.7357C14.6284 12.594 14.6939 12.4613 14.7832 12.345C14.8725 12.2286 14.9839 12.1311 15.1109 12.0578C15.2379 11.9845 15.3782 11.937 15.5236 11.918C15.669 11.8989 15.8167 11.9087 15.9583 11.9467L23.1479 13.8729C23.426 13.9565 23.6605 14.1452 23.8018 14.3988C23.9431 14.6525 23.9799 14.9512 23.9046 15.2317C23.8293 15.5121 23.6477 15.7521 23.3983 15.9008C23.1489 16.0496 22.8514 16.0953 22.5689 16.0283L15.3793 14.1021C15.0936 14.0254 14.85 13.8384 14.7021 13.5821C14.5541 13.3259 14.514 13.0215 14.5904 12.7357ZM13.4338 17.0494C13.4718 16.9076 13.5373 16.7747 13.6268 16.6583C13.7162 16.5418 13.8277 16.4442 13.9549 16.3709C14.0821 16.2976 14.2225 16.2502 14.3681 16.2312C14.5136 16.2123 14.6615 16.2222 14.8032 16.2605L19.1155 17.4156C19.4015 17.4922 19.6454 17.6792 19.7935 17.9357C19.9416 18.1921 19.9817 18.4968 19.9051 18.7828C19.8286 19.0688 19.6415 19.3127 19.3851 19.4608C19.1287 19.6089 18.824 19.6491 18.5379 19.5725L14.2242 18.4159C13.9385 18.3391 13.6949 18.1521 13.547 17.8959C13.399 17.6397 13.3589 17.3352 13.4353 17.0494" fill="url(#paint0_linear_399_2533)"/>
<defs>
<linearGradient id="paint0_linear_399_2533" x1="-4.54927" y1="8.88889" x2="35.876" y2="8.56377" gradientUnits="userSpaceOnUse">
<stop stop-color="#F9CE34"/>
<stop offset="0.500754" stop-color="#EE2A7B"/>
<stop offset="1" stop-color="#6228D7"/>
</linearGradient>
</defs>
</svg>
