<svg width="38" height="38" viewBox="0 0 38 38" fill="none" xmlns="http://www.w3.org/2000/svg">
<path d="M33.6931 25.3263L30.8882 22.5237C30.1453 21.7814 29.1381 21.3643 28.0879 21.3643C27.0377 21.3643 26.0305 21.7814 25.2876 22.5237L23.8863 23.925C23.519 24.2934 23.0825 24.5857 22.602 24.7851C22.1215 24.9845 21.6063 25.0872 21.0861 25.0872C20.5658 25.0872 20.0506 24.9845 19.5701 24.7851C19.0896 24.5857 18.6531 24.2934 18.2858 23.925L14.0842 19.7188C13.3416 18.9752 12.9244 17.9672 12.9244 16.9163C12.9244 15.8653 13.3416 14.8573 14.0842 14.1137L15.4832 12.7124C16.2258 11.9688 16.6429 10.9608 16.6429 9.90983C16.6429 8.85888 16.2258 7.8509 15.4832 7.10726L12.6852 4.30468C12.3419 3.89608 11.9133 3.56756 11.4296 3.34218C10.9458 3.11679 10.4186 3 9.8849 3C9.35122 3 8.824 3.11679 8.34025 3.34218C7.85649 3.56756 7.42792 3.89608 7.08461 4.30468C-0.283005 11.6197 3.19392 20.0686 10.557 27.4316C17.92 34.7947 26.362 38.2785 33.6908 30.9406C34.1018 30.5973 34.4324 30.168 34.6592 29.6829C34.8861 29.1979 35.0037 28.6689 35.0037 28.1334C35.0037 27.5979 34.8861 27.069 34.6592 26.5839C34.4324 26.0989 34.104 25.6695 33.6931 25.3263Z" stroke="white" stroke-width="4.5719" stroke-linecap="round" stroke-linejoin="round"/>
<path d="M33.6931 25.3263L30.8882 22.5237C30.1453 21.7814 29.1381 21.3643 28.0879 21.3643C27.0377 21.3643 26.0305 21.7814 25.2876 22.5237L23.8863 23.925C23.519 24.2934 23.0825 24.5857 22.602 24.7851C22.1215 24.9845 21.6063 25.0872 21.0861 25.0872C20.5658 25.0872 20.0506 24.9845 19.5701 24.7851C19.0896 24.5857 18.6531 24.2934 18.2858 23.925L14.0842 19.7188C13.3416 18.9752 12.9244 17.9672 12.9244 16.9163C12.9244 15.8653 13.3416 14.8573 14.0842 14.1137L15.4832 12.7124C16.2258 11.9688 16.6429 10.9608 16.6429 9.90983C16.6429 8.85888 16.2258 7.8509 15.4832 7.10726L12.6852 4.30468C12.3419 3.89608 11.9133 3.56756 11.4296 3.34218C10.9458 3.11679 10.4186 3 9.8849 3C9.35122 3 8.824 3.11679 8.34025 3.34218C7.85649 3.56756 7.42792 3.89608 7.08461 4.30468C-0.283005 11.6197 3.19392 20.0686 10.557 27.4316C17.92 34.7947 26.362 38.2785 33.6908 30.9406C34.1018 30.5973 34.4324 30.168 34.6592 29.6829C34.8861 29.1979 35.0037 28.6689 35.0037 28.1334C35.0037 27.5979 34.8861 27.069 34.6592 26.5839C34.4324 26.0989 34.104 25.6695 33.6931 25.3263Z" stroke="url(#paint0_linear_399_2587)" stroke-width="4.5719" stroke-linecap="round" stroke-linejoin="round"/>
<defs>
<linearGradient id="paint0_linear_399_2587" x1="3" y1="3" x2="40.933" y2="13.4248" gradientUnits="userSpaceOnUse">
<stop stop-color="#F9CE34"/>
<stop offset="0.500754" stop-color="#EE2A7B"/>
<stop offset="1" stop-color="#6228D7"/>
</linearGradient>
</defs>
</svg>
