<svg width="88" height="88" viewBox="0 0 88 88" fill="none" xmlns="http://www.w3.org/2000/svg">
<g opacity="0.86">
<rect x="0.794922" y="0.794678" width="86.7731" height="86.7731" rx="43.3865" fill="url(#paint0_linear_811_447)"/>
<path d="M25.4375 29.7256C26.0885 29.7646 26.6354 29.7972 27.0781 29.8232C27.5338 29.8363 27.9114 29.8493 28.2109 29.8623C28.5495 29.8753 28.8359 29.8753 29.0703 29.8623C29.3047 29.8493 29.6237 29.8167 30.0273 29.7646C30.3659 29.7256 30.8151 29.667 31.375 29.5889C31.9479 29.4977 32.6575 29.3805 33.5039 29.2373C33.2044 29.5368 32.97 29.8102 32.8008 30.0576C32.6445 30.292 32.5208 30.4938 32.4297 30.6631C32.3255 30.8714 32.2539 31.0472 32.2148 31.1904C32.1888 31.3206 32.2148 31.6462 32.2929 32.167C32.3711 32.6878 32.4818 33.3063 32.625 34.0225C32.7682 34.7256 32.9245 35.4808 33.0937 36.2881C33.263 37.0824 33.4323 37.8311 33.6015 38.5342C33.7708 39.2243 33.9206 39.8167 34.0508 40.3115C34.194 40.7933 34.2982 41.0798 34.3633 41.1709C34.5586 41.4443 34.6823 41.6266 34.7344 41.7178C34.7864 41.7959 34.8776 41.8675 35.0078 41.9326C35.0599 41.9587 35.1445 41.9977 35.2617 42.0498C35.3659 42.1019 35.5026 42.167 35.6719 42.2451C35.8541 42.3232 36.082 42.4144 36.3554 42.5186C35.8476 42.5446 35.4114 42.5641 35.0469 42.5771C34.6823 42.5771 34.3828 42.5837 34.1484 42.5967C33.875 42.6097 33.6406 42.6227 33.4453 42.6357C33.25 42.6357 33.0156 42.6488 32.7422 42.6748C32.5078 42.7008 32.2018 42.7269 31.8242 42.7529C31.4596 42.779 31.0299 42.805 30.5351 42.8311C30.7956 42.6488 31.0039 42.486 31.1601 42.3428C31.3294 42.1865 31.4596 42.0563 31.5508 41.9521C31.6549 41.8219 31.7265 41.7048 31.7656 41.6006C31.7916 41.4834 31.8112 41.3076 31.8242 41.0732C31.8372 40.8649 31.8372 40.5915 31.8242 40.2529C31.8112 39.9014 31.7786 39.4456 31.7265 38.8857L26.5898 39.4131C26.4596 39.6344 26.362 39.8298 26.2969 39.999C26.2318 40.1553 26.1862 40.292 26.1601 40.4092C26.1211 40.5524 26.1081 40.6696 26.1211 40.7607C26.1471 40.8649 26.1927 40.9886 26.2578 41.1318C26.3229 41.262 26.414 41.4183 26.5312 41.6006C26.6614 41.7699 26.8502 41.9717 27.0976 42.2061C26.7721 42.193 26.4401 42.1865 26.1015 42.1865C25.763 42.1865 25.4505 42.193 25.164 42.2061C24.8255 42.2191 24.4935 42.2321 24.1679 42.2451C23.8424 42.2581 23.4713 42.2777 23.0547 42.3037C22.7031 42.3298 22.2929 42.3623 21.8242 42.4014C21.3424 42.4274 20.8281 42.4665 20.2812 42.5186C20.6198 42.3623 20.9062 42.2061 21.1406 42.0498C21.375 41.8805 21.5703 41.7243 21.7265 41.5811C21.9088 41.4248 22.0651 41.2751 22.1953 41.1318C22.2864 41.0016 22.4687 40.7021 22.7422 40.2334C23.0156 39.7516 23.3216 39.1852 23.6601 38.5342C24.0117 37.8831 24.3763 37.1865 24.7539 36.4443C25.1445 35.7021 25.4961 35.0055 25.8086 34.3545C26.1211 33.6904 26.375 33.1175 26.5703 32.6357C26.7656 32.154 26.8633 31.8415 26.8633 31.6982C26.8372 31.529 26.7721 31.3402 26.6679 31.1318C26.5768 30.9495 26.4336 30.7412 26.2383 30.5068C26.056 30.2725 25.789 30.012 25.4375 29.7256ZM31.4922 37.4404C31.414 36.9847 31.3424 36.5941 31.2773 36.2686C31.2122 35.93 31.1601 35.6501 31.1211 35.4287C31.069 35.1683 31.0299 34.9404 31.0039 34.7451C30.9648 34.5628 30.9193 34.3285 30.8672 34.042C30.8151 33.7946 30.75 33.4886 30.6719 33.124C30.6068 32.7464 30.5221 32.2972 30.4179 31.7764C29.6758 33.2607 29.0963 34.4131 28.6797 35.2334C28.276 36.0407 27.9831 36.6331 27.8008 37.0107C27.5794 37.4535 27.4557 37.7139 27.4297 37.792L31.4922 37.4404ZM34.8906 32.1084C35.2682 32.1084 35.5807 32.1149 35.8281 32.1279C36.0755 32.1279 36.2708 32.1279 36.414 32.1279H36.8047H37.2539C37.4362 32.1279 37.6771 32.1279 37.9765 32.1279C38.289 32.1149 38.6927 32.0954 39.1875 32.0693C38.9531 32.1214 38.7708 32.18 38.6406 32.2451C38.5104 32.2972 38.4127 32.3558 38.3476 32.4209C38.2695 32.486 38.2239 32.5576 38.2109 32.6357C38.2239 32.7399 38.2695 32.9027 38.3476 33.124C38.4127 33.3193 38.5234 33.5863 38.6797 33.9248C38.8489 34.2633 39.0963 34.7191 39.4219 35.292C39.9687 34.667 40.3854 34.1722 40.6719 33.8076C40.9583 33.443 41.1732 33.1631 41.3164 32.9678C41.4596 32.7464 41.5443 32.5967 41.5703 32.5186C41.5573 32.4535 41.5377 32.3883 41.5117 32.3232C41.4726 32.2191 41.375 32.0563 41.2187 31.835C41.5703 31.861 41.8763 31.8805 42.1367 31.8936C42.3971 31.8936 42.6185 31.9001 42.8008 31.9131C43.0091 31.9261 43.1784 31.9326 43.3086 31.9326C43.4518 31.9326 43.6601 31.9261 43.9336 31.9131C44.1549 31.9001 44.4544 31.887 44.832 31.874C45.2226 31.848 45.7109 31.8089 46.2969 31.7568C45.8151 31.9912 45.4049 32.2191 45.0664 32.4404C44.7278 32.6488 44.4479 32.8376 44.2265 33.0068C43.9661 33.2021 43.7513 33.3844 43.582 33.5537C43.4127 33.749 43.2044 33.9899 42.957 34.2764C42.7357 34.5368 42.4622 34.8623 42.1367 35.2529C41.8242 35.6305 41.4401 36.1058 40.9844 36.6787C41.3229 37.2646 41.6419 37.766 41.9414 38.1826C42.2539 38.5993 42.5208 38.9443 42.7422 39.2178C43.0026 39.5433 43.2435 39.8037 43.4648 39.999C43.6862 40.1943 43.9271 40.3896 44.1875 40.585C44.4088 40.7542 44.6627 40.9365 44.9492 41.1318C45.2487 41.3141 45.5677 41.4769 45.9062 41.6201C45.5677 41.6462 45.2357 41.6657 44.9101 41.6787C44.5976 41.6787 44.3177 41.6917 44.0703 41.7178C43.7838 41.7438 43.5104 41.7633 43.25 41.7764C42.9896 41.8024 42.7226 41.8219 42.4492 41.835C42.2148 41.848 41.9544 41.861 41.6679 41.874C41.3815 41.887 41.0885 41.8936 40.789 41.8936C40.9062 41.7764 40.9974 41.6657 41.0625 41.5615C41.1276 41.4574 41.1797 41.3662 41.2187 41.2881C41.2708 41.1969 41.3034 41.1123 41.3164 41.0342C41.3034 40.93 41.2383 40.7607 41.1211 40.5264C41.0169 40.318 40.8541 40.0316 40.6328 39.667C40.4114 39.2894 40.0859 38.7816 39.6562 38.1436C39.3568 38.4561 39.1159 38.7295 38.9336 38.9639C38.7643 39.1982 38.6341 39.3936 38.5429 39.5498C38.4388 39.7321 38.3672 39.8818 38.3281 39.999C38.3021 40.1162 38.3021 40.2464 38.3281 40.3896C38.3541 40.5068 38.3932 40.6501 38.4453 40.8193C38.4974 40.9756 38.5885 41.1383 38.7187 41.3076C38.0677 41.3467 37.5208 41.3662 37.0781 41.3662H36.414C36.2057 41.3662 35.9583 41.3597 35.6719 41.3467C35.4245 41.3337 35.1185 41.3271 34.7539 41.3271C34.3763 41.3141 33.9401 41.2946 33.4453 41.2686C33.5885 41.2165 33.7383 41.1514 33.8945 41.0732C34.0508 40.9951 34.1875 40.9235 34.3047 40.8584C34.4479 40.7803 34.5846 40.6956 34.7148 40.6045C34.8581 40.4873 35.0859 40.266 35.3984 39.9404C35.6588 39.667 36.0169 39.2829 36.4726 38.7881C36.9284 38.2803 37.5208 37.6032 38.25 36.7568C37.8203 35.9756 37.4687 35.3571 37.1953 34.9014C36.9349 34.4326 36.7331 34.068 36.5898 33.8076C36.4206 33.5081 36.2969 33.3063 36.2187 33.2021C36.1406 33.098 36.0364 32.9808 35.9062 32.8506C35.6979 32.6423 35.3594 32.3949 34.8906 32.1084ZM49.3828 39.8037C49.7474 39.8037 50.0859 39.7646 50.3984 39.6865C50.6588 39.6214 50.9062 39.5173 51.1406 39.374C51.388 39.2178 51.5508 38.9899 51.6289 38.6904C51.8893 38.7425 52.1107 38.7881 52.2929 38.8271C52.4752 38.8532 52.6315 38.8792 52.7617 38.9053C52.9049 38.9443 53.0286 38.9704 53.1328 38.9834C53.237 39.0094 53.3607 39.0355 53.5039 39.0615C53.6341 39.0876 53.7903 39.1201 53.9726 39.1592C54.1679 39.1852 54.3958 39.2243 54.6562 39.2764C54.4609 39.2503 54.2591 39.2699 54.0508 39.335C53.8554 39.4001 53.6666 39.4717 53.4844 39.5498C53.276 39.641 53.0807 39.7516 52.8984 39.8818C52.7812 39.96 52.6445 40.0771 52.4883 40.2334C52.345 40.3896 52.1367 40.5394 51.8633 40.6826C51.5898 40.8258 51.2252 40.9495 50.7695 41.0537C50.3268 41.1449 49.7539 41.1774 49.0508 41.1514C48.2044 41.1253 47.4948 40.9756 46.9219 40.7021C46.3489 40.4157 45.8867 40.0706 45.5351 39.667C45.1836 39.2503 44.9297 38.8011 44.7734 38.3193C44.6172 37.8376 44.5325 37.3883 44.5195 36.9717C44.5065 36.555 44.6302 36.1188 44.8906 35.6631C45.151 35.2074 45.5156 34.7907 45.9844 34.4131C46.4661 34.0355 47.0456 33.7295 47.7226 33.4951C48.3997 33.2477 49.1419 33.124 49.9492 33.124C50.4179 33.124 50.8476 33.1826 51.2383 33.2998C51.6419 33.404 52.0065 33.5472 52.332 33.7295C52.6706 33.9118 52.9635 34.1201 53.2109 34.3545C53.4583 34.5758 53.6666 34.8037 53.8359 35.0381C54.0052 35.2855 54.1484 35.5459 54.2656 35.8193C54.3698 36.0537 54.4544 36.3206 54.5195 36.6201C54.5846 36.9196 54.6041 37.2256 54.5781 37.5381C53.5885 37.5641 52.7877 37.5837 52.1758 37.5967C51.5768 37.6097 51.1081 37.6162 50.7695 37.6162H49.8906H49.2265C48.9922 37.6162 48.6862 37.6227 48.3086 37.6357C47.931 37.6488 47.4687 37.6683 46.9219 37.6943C46.987 38.2152 47.1497 38.6188 47.4101 38.9053C47.6836 39.1787 47.97 39.387 48.2695 39.5303C48.6081 39.6865 48.9791 39.7777 49.3828 39.8037ZM47.625 36.2881C48.0416 36.3141 48.3867 36.3337 48.6601 36.3467C48.9466 36.3597 49.181 36.3727 49.3633 36.3857C49.5586 36.3988 49.7148 36.4053 49.832 36.4053H50.3203C50.6458 36.4053 51.2513 36.3857 52.1367 36.3467C52.0976 35.7738 51.9739 35.3376 51.7656 35.0381C51.5703 34.7386 51.362 34.5173 51.1406 34.374C50.8802 34.2178 50.5937 34.1266 50.2812 34.1006C49.4349 34.1136 48.8034 34.2894 48.3867 34.6279C47.9831 34.9665 47.7291 35.5199 47.625 36.2881ZM55.9648 40.7998C56.056 40.3701 56.1211 39.9925 56.1601 39.667C56.2122 39.3285 56.2513 39.0485 56.2773 38.8271C56.3034 38.5667 56.3164 38.3454 56.3164 38.1631C56.3034 37.9417 56.2903 37.6813 56.2773 37.3818C56.2773 37.0693 56.2643 36.7633 56.2383 36.4639C56.2252 36.1514 56.2057 35.8779 56.1797 35.6436C56.1536 35.3962 56.1211 35.2204 56.082 35.1162C56.0299 35.012 55.9583 34.9014 55.8672 34.7842C55.6849 34.5628 55.4179 34.348 55.0664 34.1396C55.3659 34.0745 55.6198 34.0225 55.8281 33.9834C56.0495 33.9313 56.2318 33.8857 56.375 33.8467C56.5312 33.7946 56.6679 33.749 56.7851 33.71C56.8893 33.6709 57.013 33.6318 57.1562 33.5928C57.2734 33.5667 57.4166 33.5342 57.5859 33.4951C57.7552 33.4561 57.9505 33.4105 58.1719 33.3584L58.1133 35.1357C58.5299 34.641 58.9531 34.2699 59.3828 34.0225C59.8125 33.7751 60.2161 33.5993 60.5937 33.4951C61.0234 33.3649 61.4466 33.2998 61.8633 33.2998C62.3841 33.3258 62.8659 33.4105 63.3086 33.5537C63.7643 33.6969 64.1549 33.8662 64.4804 34.0615C64.819 34.2438 65.0924 34.4391 65.3008 34.6475C65.5091 34.8558 65.6328 35.0381 65.6719 35.1943C65.8281 35.7021 65.8672 36.1709 65.789 36.6006C65.7109 37.0173 65.6068 37.4274 65.4765 37.8311C65.3594 38.2217 65.2552 38.6123 65.164 39.0029C65.0859 39.3936 65.1185 39.8167 65.2617 40.2725C65.3138 40.3896 65.3659 40.5068 65.4179 40.624C65.47 40.7282 65.5351 40.8324 65.6133 40.9365C65.6914 41.0407 65.7825 41.1253 65.8867 41.1904C65.7435 41.1774 65.6002 41.1709 65.457 41.1709C65.3138 41.1579 65.1836 41.1449 65.0664 41.1318C64.9232 41.1188 64.7929 41.1058 64.6758 41.0928C64.5456 41.0798 64.3698 41.0732 64.1484 41.0732C63.7708 41.0732 63.1849 41.0928 62.3906 41.1318C62.5078 40.8584 62.5989 40.6305 62.664 40.4482C62.7422 40.2529 62.8073 40.0967 62.8594 39.9795C62.9114 39.8363 62.9505 39.7256 62.9765 39.6475C63.1328 39.2699 63.2239 38.8402 63.25 38.3584C63.289 37.8766 63.2565 37.3883 63.1523 36.8936C63.1133 36.7243 63.0482 36.5225 62.957 36.2881C62.8659 36.0537 62.7422 35.8258 62.5859 35.6045C62.4427 35.3831 62.2669 35.1943 62.0586 35.0381C61.8633 34.8818 61.6354 34.7907 61.375 34.7646C61.1146 34.7386 60.8216 34.8037 60.4961 34.96C60.1836 35.1162 59.845 35.4027 59.4804 35.8193C59.207 36.1709 58.9922 36.6006 58.8359 37.1084C58.6927 37.5381 58.595 38.0785 58.5429 38.7295C58.4909 39.3675 58.569 40.1162 58.7773 40.9756C58.595 40.9495 58.4258 40.9365 58.2695 40.9365C58.1133 40.9235 57.9831 40.9105 57.8789 40.8975C57.7487 40.8844 57.6315 40.8714 57.5273 40.8584C57.4101 40.8584 57.2799 40.8519 57.1367 40.8389C57.0065 40.8389 56.8437 40.8389 56.6484 40.8389C56.4531 40.8258 56.2252 40.8128 55.9648 40.7998ZM23.8945 52.6514C23.7122 53.068 23.5495 53.4326 23.4062 53.7451C23.263 54.0576 23.1393 54.3245 23.0351 54.5459C22.9179 54.7933 22.8203 55.0146 22.7422 55.21C22.6771 55.3532 22.5924 55.5485 22.4883 55.7959C22.3841 56.0173 22.2539 56.3102 22.0976 56.6748C21.9544 57.0264 21.7656 57.4821 21.5312 58.042C21.414 57.5602 21.2708 57.137 21.1015 56.7725C20.9323 56.4079 20.75 56.0889 20.5547 55.8154C20.3594 55.542 20.151 55.3206 19.9297 55.1514C19.7213 54.9691 19.513 54.8193 19.3047 54.7021C18.8229 54.4417 18.3151 54.2985 17.7812 54.2725C17.0781 54.3115 16.5247 54.4287 16.1211 54.624C15.7304 54.8063 15.444 55.0212 15.2617 55.2686C15.0794 55.5029 14.9818 55.7503 14.9687 56.0107C14.9557 56.2581 14.9883 56.4665 15.0664 56.6357C15.1315 56.792 15.3594 56.9743 15.75 57.1826C16.1536 57.391 16.6354 57.6318 17.1953 57.9053C17.7682 58.1657 18.3802 58.4652 19.0312 58.8037C19.6823 59.1292 20.2812 59.4938 20.8281 59.8975C21.388 60.2881 21.8568 60.7178 22.2344 61.1865C22.625 61.6423 22.8398 62.1305 22.8789 62.6514C22.9179 63.3154 22.9114 63.9144 22.8594 64.4482C22.8073 64.9821 22.625 65.4378 22.3125 65.8154C22 66.193 21.5117 66.4925 20.8476 66.7139C20.1966 66.9352 19.2916 67.0719 18.1328 67.124C16.9349 67.1761 15.9518 67.111 15.1836 66.9287C14.4153 66.7464 13.7903 66.499 13.3086 66.1865C12.8398 65.874 12.4883 65.529 12.2539 65.1514C12.0325 64.7738 11.8698 64.4157 11.7656 64.0771C11.6614 63.7256 11.5898 63.4261 11.5508 63.1787C11.5117 62.9183 11.4466 62.762 11.3554 62.71C11.2513 62.6449 11.1471 62.5863 11.0429 62.5342C10.9518 62.4821 10.8541 62.4365 10.75 62.3975C10.6458 62.3454 10.5416 62.2998 10.4375 62.2607L16.1211 61.3428C15.7956 61.6032 15.5416 61.8441 15.3594 62.0654C15.1901 62.2868 15.0599 62.4821 14.9687 62.6514C14.8646 62.8467 14.7929 63.029 14.7539 63.1982C14.7278 63.3805 14.7864 63.6084 14.9297 63.8818C15.0729 64.1553 15.2682 64.4222 15.5156 64.6826C15.776 64.93 16.0755 65.1383 16.414 65.3076C16.7526 65.4769 17.1041 65.5485 17.4687 65.5225C17.9245 65.4834 18.2956 65.3727 18.582 65.1904C18.8685 64.9951 19.0833 64.7542 19.2265 64.4678C19.3828 64.1813 19.4739 63.8688 19.5 63.5303C19.526 63.1917 19.4935 62.8597 19.4023 62.5342C19.3242 62.1956 19.194 61.8831 19.0117 61.5967C18.8294 61.2972 18.6146 61.0498 18.3672 60.8545C18.1458 60.6982 17.8008 60.5485 17.332 60.4053C16.8763 60.262 16.362 60.1058 15.789 59.9365C15.2291 59.7673 14.6497 59.5719 14.0508 59.3506C13.4648 59.1292 12.931 58.8558 12.4492 58.5303C11.9804 58.2048 11.6028 57.8206 11.3164 57.3779C11.0429 56.9352 10.9388 56.4014 11.0039 55.7764C11.056 55.2425 11.2252 54.7998 11.5117 54.4482C11.8112 54.0837 12.1823 53.7972 12.625 53.5889C13.0807 53.3675 13.582 53.2048 14.1289 53.1006C14.6888 52.9964 15.2552 52.9378 15.8281 52.9248C16.414 52.8988 16.987 52.9053 17.5469 52.9443C18.1198 52.9834 18.6341 53.029 19.0898 53.0811C19.5456 53.1331 19.9297 53.1852 20.2422 53.2373C20.5677 53.2764 20.7695 53.3024 20.8476 53.3154C21.1862 53.3415 21.5247 53.335 21.8633 53.2959C22.1627 53.2699 22.4883 53.2113 22.8398 53.1201C23.2044 53.016 23.556 52.8597 23.8945 52.6514ZM23.8554 54.6436C24.2461 54.6826 24.5716 54.7152 24.832 54.7412C25.1054 54.7673 25.3268 54.7868 25.4961 54.7998C25.6914 54.8128 25.8476 54.8193 25.9648 54.8193C26.082 54.8324 26.2383 54.8324 26.4336 54.8193C26.6028 54.8063 26.8242 54.7933 27.0976 54.7803C27.3711 54.7542 27.7161 54.7152 28.1328 54.6631C28.0416 54.7933 27.97 54.9105 27.9179 55.0146C27.8659 55.1058 27.8203 55.1904 27.7812 55.2686L27.664 55.5029C27.638 55.5811 27.612 55.6592 27.5859 55.7373C27.5599 55.8024 27.5338 55.8805 27.5078 55.9717C27.4948 56.0628 27.4818 56.1605 27.4687 56.2646H30.4765L30.2031 57.8467L27.4492 57.6904C27.3841 58.3545 27.3385 58.8688 27.3125 59.2334C27.2864 59.598 27.2604 59.8649 27.2344 60.0342L27.1953 60.3857C27.1562 60.8805 27.1172 61.4209 27.0781 62.0068C27.039 62.5798 27.026 63.1136 27.039 63.6084C27.0521 64.1032 27.0976 64.5199 27.1758 64.8584C27.2539 65.1839 27.3906 65.3467 27.5859 65.3467C27.7812 65.3467 27.9635 65.2946 28.1328 65.1904C28.3021 65.0863 28.4453 64.9626 28.5625 64.8193C28.6927 64.6761 28.7903 64.5329 28.8554 64.3896C28.9206 64.2334 28.9531 64.1162 28.9531 64.0381C28.9531 63.96 28.9336 63.8688 28.8945 63.7646C28.8294 63.5693 28.7122 63.3219 28.5429 63.0225C28.9206 63.1136 29.2526 63.2048 29.539 63.2959C29.6823 63.348 29.8125 63.4001 29.9297 63.4521C30.0599 63.5042 30.2096 63.5628 30.3789 63.6279C30.5221 63.693 30.7044 63.7712 30.9258 63.8623C31.1471 63.9535 31.4075 64.0641 31.707 64.1943C31.4206 64.2464 31.2122 64.3311 31.082 64.4482C31.0039 64.5003 30.9453 64.5589 30.9062 64.624C30.8151 64.7673 30.7109 64.9626 30.5937 65.21C30.4765 65.4443 30.3008 65.6787 30.0664 65.9131C29.832 66.1475 29.513 66.3558 29.1094 66.5381C28.7187 66.7204 28.1914 66.8245 27.5273 66.8506C26.8372 66.8766 26.3099 66.7594 25.9453 66.499C25.5937 66.2386 25.3333 65.9391 25.164 65.6006C25.0078 65.249 24.9166 64.904 24.8906 64.5654C24.8646 64.2269 24.845 63.999 24.832 63.8818C24.819 63.7646 24.819 63.4717 24.832 63.0029C24.845 62.5342 24.8646 62.0199 24.8906 61.46C24.9166 60.887 24.9427 60.3402 24.9687 59.8193C24.9948 59.2855 25.0078 58.8949 25.0078 58.6475C25.0078 58.5173 25.0143 58.3805 25.0273 58.2373C25.0273 58.1201 25.0273 57.9964 25.0273 57.8662C25.0403 57.723 25.0469 57.5863 25.0469 57.4561L22.2148 57.4365L22.0976 56.3232L24.9492 56.4014C24.9232 56.2581 24.8906 56.1279 24.8515 56.0107C24.8255 55.8805 24.7995 55.7764 24.7734 55.6982C24.7344 55.6071 24.6953 55.529 24.6562 55.4639C24.6041 55.3988 24.5456 55.3271 24.4804 55.249C24.4153 55.1839 24.3307 55.0993 24.2265 54.9951C24.1224 54.891 23.9987 54.7738 23.8554 54.6436ZM31.0039 57.9639C31.3424 58.029 31.6354 58.0811 31.8828 58.1201C32.1432 58.1462 32.3646 58.1722 32.5469 58.1982C32.7552 58.2243 32.9375 58.2438 33.0937 58.2568C33.25 58.2699 33.4323 58.2829 33.6406 58.2959C33.9922 58.3089 34.487 58.3089 35.125 58.2959C34.7474 58.2699 34.4479 58.3675 34.2265 58.5889C34.0182 58.7972 33.862 59.0381 33.7578 59.3115C33.6276 59.637 33.556 60.0146 33.5429 60.4443C33.5169 61.0173 33.5299 61.5381 33.582 62.0068C33.6471 62.4626 33.7578 62.8532 33.914 63.1787C34.0833 63.4912 34.3047 63.7256 34.5781 63.8818C34.8515 64.0251 35.2031 64.0641 35.6328 63.999C36.0625 63.9339 36.388 63.7842 36.6094 63.5498C36.8437 63.3024 37.013 63.0029 37.1172 62.6514C37.2213 62.2868 37.2799 61.8766 37.2929 61.4209C37.319 60.9652 37.3385 60.4899 37.3515 59.9951C37.3515 59.5003 37.345 59.1488 37.332 58.9404C37.332 58.7191 37.3255 58.5758 37.3125 58.5107C37.2995 58.4456 37.2799 58.4196 37.2539 58.4326C37.2278 58.4326 37.1953 58.4001 37.1562 58.335C37.1302 58.2829 37.0911 58.2308 37.039 58.1787C37 58.1266 36.9479 58.068 36.8828 58.0029C36.8177 57.9248 36.7461 57.8467 36.6679 57.7686C37.0065 57.7816 37.306 57.7946 37.5664 57.8076C37.8398 57.8076 38.0677 57.8141 38.25 57.8271C38.4583 57.8402 38.6406 57.8532 38.7969 57.8662C38.9401 57.8792 39.1289 57.8988 39.3633 57.9248C39.5586 57.9508 39.8125 57.9769 40.125 58.0029C40.4375 58.029 40.8086 58.068 41.2383 58.1201C40.9388 58.1852 40.6979 58.2829 40.5156 58.4131C40.3333 58.5433 40.1901 58.6735 40.0859 58.8037C39.9687 58.9469 39.8841 59.1032 39.832 59.2725C39.7929 59.4938 39.7929 59.8324 39.832 60.2881C39.8581 60.6917 39.9232 61.2451 40.0273 61.9482C40.1315 62.6514 40.2943 63.5758 40.5156 64.7217L38.9726 65.6396L38.6601 63.042C38.2825 63.68 37.8789 64.1748 37.4492 64.5264C37.0325 64.8649 36.6419 65.1123 36.2773 65.2686C35.8476 65.4508 35.431 65.555 35.0273 65.5811C34.4935 65.5811 34.0312 65.5485 33.6406 65.4834C33.263 65.4053 32.9375 65.3076 32.664 65.1904C32.3906 65.0732 32.1693 64.943 32 64.7998C31.8437 64.6436 31.7265 64.4873 31.6484 64.3311C31.4661 64.0055 31.3685 63.5889 31.3554 63.0811C31.3424 62.5602 31.362 62.0459 31.414 61.5381C31.4661 61.0173 31.5247 60.542 31.5898 60.1123C31.6549 59.6826 31.6745 59.3896 31.6484 59.2334C31.6224 59.1162 31.5833 58.986 31.5312 58.8428C31.4791 58.7256 31.414 58.5954 31.3359 58.4521C31.2578 58.2959 31.1471 58.1331 31.0039 57.9639ZM51.1211 51.9873C51.3685 52.0003 51.6354 52.0068 51.9219 52.0068C52.1693 52.0068 52.4492 52.0133 52.7617 52.0264C53.0872 52.0264 53.4258 52.0133 53.7773 51.9873C53.4648 52.1305 53.1914 52.3389 52.957 52.6123C52.7226 52.8857 52.5338 53.1592 52.3906 53.4326C52.2083 53.7581 52.0586 54.0967 51.9414 54.4482C51.8763 54.6566 51.8242 55.0277 51.7851 55.5615C51.7461 56.0824 51.7135 56.6943 51.6875 57.3975C51.6745 58.1006 51.6679 58.8428 51.6679 59.624C51.6679 60.4053 51.6745 61.154 51.6875 61.8701C51.7005 62.5732 51.72 63.1982 51.7461 63.7451C51.7721 64.292 51.8047 64.6761 51.8437 64.8975C51.8958 65.1579 51.9609 65.4053 52.039 65.6396C52.1041 65.848 52.1888 66.0628 52.2929 66.2842C52.3971 66.4925 52.5273 66.6618 52.6836 66.792L50.6914 67.6904C50.5872 67.5472 50.5026 67.3975 50.4375 67.2412C50.3724 67.098 50.3203 66.9678 50.2812 66.8506C50.2291 66.7074 50.1966 66.5771 50.1836 66.46C50.1575 66.3037 50.1315 66.1344 50.1054 65.9521C50.0794 65.7568 50.0469 65.5745 50.0078 65.4053C49.9818 65.223 49.9622 65.0732 49.9492 64.9561C49.9362 64.8389 49.9362 64.7673 49.9492 64.7412C49.9622 64.7152 49.8841 64.8324 49.7148 65.0928C49.5456 65.3402 49.2916 65.6331 48.9531 65.9717C48.6276 66.2972 48.2239 66.6162 47.7422 66.9287C47.2604 67.2282 46.72 67.417 46.1211 67.4951C45.5091 67.5732 44.9427 67.4561 44.4219 67.1436C43.914 66.8311 43.4778 66.3949 43.1133 65.835C42.7487 65.262 42.4687 64.6045 42.2734 63.8623C42.0911 63.1071 42.0195 62.3389 42.0586 61.5576C42.0846 61.0368 42.2018 60.5745 42.4101 60.1709C42.6185 59.7542 42.8789 59.3962 43.1914 59.0967C43.5169 58.7842 43.8685 58.5238 44.2461 58.3154C44.6367 58.0941 45.0143 57.9118 45.3789 57.7686C45.7565 57.6253 46.1081 57.5212 46.4336 57.4561C46.7591 57.391 47.0195 57.3454 47.2148 57.3193C47.4492 57.3063 47.7161 57.3454 48.0156 57.4365C48.276 57.5146 48.5755 57.6449 48.914 57.8271C49.2656 58.0094 49.6562 58.2829 50.0859 58.6475C50.0078 57.3454 49.9362 56.3037 49.8711 55.5225C49.806 54.7282 49.7409 54.1227 49.6758 53.7061C49.6107 53.2113 49.5521 52.8727 49.5 52.6904C49.4349 52.5602 49.3502 52.43 49.2461 52.2998C49.1549 52.1956 49.0377 52.0915 48.8945 51.9873C48.7643 51.8701 48.6081 51.779 48.4258 51.7139C48.7643 51.779 49.0898 51.8245 49.4023 51.8506C49.7148 51.8766 50.0013 51.9027 50.2617 51.9287C50.5612 51.9548 50.8476 51.9743 51.1211 51.9873ZM46.2187 59.2725C45.9713 59.3636 45.7695 59.5199 45.6133 59.7412C45.47 59.9626 45.3528 60.2295 45.2617 60.542C45.1706 60.8415 45.1054 61.167 45.0664 61.5186C45.0403 61.8571 45.0208 62.1891 45.0078 62.5146C45.0078 62.8271 45.0078 63.1136 45.0078 63.374C45.0078 63.6344 45.0078 63.8298 45.0078 63.96C45.0078 64.0381 45.0208 64.1813 45.0469 64.3896C45.0859 64.585 45.164 64.7933 45.2812 65.0146C45.3984 65.223 45.5612 65.4118 45.7695 65.5811C45.9909 65.7503 46.2838 65.835 46.6484 65.835C46.9479 65.8089 47.2669 65.7048 47.6054 65.5225C47.9049 65.3662 48.2435 65.1188 48.6211 64.7803C49.0117 64.4287 49.4284 63.9274 49.8711 63.2764C49.845 62.8597 49.8255 62.5146 49.8125 62.2412C49.8125 61.9678 49.806 61.7464 49.7929 61.5771C49.7799 61.3818 49.7734 61.2256 49.7734 61.1084V60.8154C49.7734 60.7373 49.7734 60.6527 49.7734 60.5615C49.7734 60.4704 49.7799 60.3857 49.7929 60.3076C49.4284 60.0472 49.1028 59.8258 48.8164 59.6436C48.5429 59.4482 48.2695 59.305 47.9961 59.2139C47.7357 59.1097 47.4622 59.0641 47.1758 59.0771C46.9023 59.0771 46.5833 59.1423 46.2187 59.2725ZM53.3672 58.2178L56.9609 58.2568C56.7526 59.0511 56.5963 59.7282 56.4922 60.2881C56.401 60.848 56.3424 61.3167 56.3164 61.6943C56.2643 62.124 56.2513 62.4886 56.2773 62.7881C56.3164 63.0615 56.3815 63.3545 56.4726 63.667C56.5508 63.9274 56.6679 64.2269 56.8242 64.5654C56.9804 64.904 57.1888 65.2425 57.4492 65.5811C57.2929 65.529 57.1237 65.4899 56.9414 65.4639C56.7591 65.4378 56.5898 65.4183 56.4336 65.4053C56.2513 65.3923 56.069 65.3923 55.8867 65.4053C55.7044 65.4183 55.5026 65.4378 55.2812 65.4639C55.0989 65.4899 54.8776 65.5225 54.6172 65.5615C54.3568 65.6006 54.0833 65.6527 53.7969 65.7178C53.9922 65.1318 54.1419 64.624 54.2461 64.1943C54.3633 63.7646 54.4479 63.4066 54.5 63.1201C54.5521 62.7816 54.5846 62.5081 54.5976 62.2998C54.5976 62.0394 54.5976 61.7464 54.5976 61.4209C54.5976 61.0824 54.5976 60.7568 54.5976 60.4443C54.5976 60.1318 54.5911 59.8584 54.5781 59.624C54.5651 59.3766 54.539 59.2204 54.5 59.1553L54.3047 58.96C54.2265 58.8949 54.1094 58.8037 53.9531 58.6865C53.8099 58.5563 53.6146 58.4001 53.3672 58.2178ZM54.7539 55.21C55.0273 55.0667 55.3008 55.0277 55.5742 55.0928C55.8607 55.1579 56.082 55.2816 56.2383 55.4639C56.3945 55.6462 56.4466 55.861 56.3945 56.1084C56.3554 56.3558 56.1471 56.5967 55.7695 56.8311C55.3919 57.0524 55.0599 57.1305 54.7734 57.0654C54.487 57.0003 54.2851 56.8636 54.1679 56.6553C54.0508 56.4469 54.0312 56.2061 54.1094 55.9326C54.1875 55.6462 54.4023 55.4053 54.7539 55.21ZM63.3867 58.1982C63.7252 58.1982 64.0768 58.2633 64.4414 58.3936C64.806 58.5107 65.1575 58.667 65.4961 58.8623C65.8346 59.0446 66.1406 59.2464 66.414 59.4678C66.7005 59.6761 66.9349 59.8779 67.1172 60.0732C67.4427 60.4248 67.664 60.9001 67.7812 61.499C67.9114 62.085 67.9375 62.6904 67.8594 63.3154C67.7812 63.9274 67.5989 64.5068 67.3125 65.0537C67.026 65.6006 66.6289 66.0042 66.1211 66.2646C65.7565 66.4469 65.3984 66.5902 65.0469 66.6943C64.6953 66.7985 64.3568 66.8766 64.0312 66.9287C63.7057 66.9808 63.3997 67.0068 63.1133 67.0068C62.8268 67.0068 62.5794 67.0003 62.3711 66.9873C61.9804 66.9613 61.5703 66.8245 61.1406 66.5771C60.7239 66.3298 60.3268 66.0238 59.9492 65.6592C59.5846 65.2946 59.2721 64.8975 59.0117 64.4678C58.7513 64.0251 58.595 63.6084 58.5429 63.2178C58.4648 62.6839 58.4518 62.124 58.5039 61.5381C58.556 60.9521 58.7448 60.4118 59.0703 59.917C59.4088 59.4222 59.9166 59.012 60.5937 58.6865C61.2838 58.361 62.2148 58.1982 63.3867 58.1982ZM62.7422 65.7764C62.8854 65.8024 63.0807 65.7699 63.3281 65.6787C63.5755 65.5745 63.8164 65.4118 64.0508 65.1904C64.2982 64.9691 64.513 64.6891 64.6953 64.3506C64.8906 63.999 65.0078 63.5758 65.0469 63.0811C65.0859 62.5993 65.0859 62.1566 65.0469 61.7529C65.0208 61.3493 64.9622 60.9977 64.8711 60.6982C64.7799 60.3857 64.6758 60.1318 64.5586 59.9365C64.4414 59.7412 64.3177 59.6045 64.1875 59.5264C63.9661 59.4092 63.6992 59.318 63.3867 59.2529C63.0742 59.1748 62.8073 59.1878 62.5859 59.292C62.4818 59.3441 62.3515 59.4548 62.1953 59.624C62.039 59.7933 61.8828 60.0081 61.7265 60.2686C61.5703 60.516 61.4271 60.8024 61.2969 61.1279C61.1797 61.4535 61.095 61.792 61.0429 62.1436C60.9909 62.4951 60.9778 62.8727 61.0039 63.2764C61.0429 63.68 61.1276 64.0641 61.2578 64.4287C61.388 64.7803 61.5703 65.0863 61.8047 65.3467C62.0521 65.5941 62.3646 65.7373 62.7422 65.7764ZM77.4101 55.7959C77.2929 56.0824 77.1888 56.3428 77.0976 56.5771C77.0195 56.8115 76.9479 57.0199 76.8828 57.2021C76.8177 57.4105 76.7591 57.5928 76.707 57.749C76.6549 57.9313 76.5963 58.1396 76.5312 58.374C76.4661 58.5824 76.3815 58.8428 76.2773 59.1553C76.1862 59.4548 76.0755 59.8128 75.9453 60.2295C75.8411 59.6045 75.6523 59.1097 75.3789 58.7451C75.1054 58.3675 74.8255 58.0745 74.539 57.8662C74.2005 57.6318 73.8359 57.4626 73.4453 57.3584C72.7422 57.2412 72.2344 57.2542 71.9219 57.3975C71.6094 57.5407 71.401 57.723 71.2969 57.9443C71.2448 58.0355 71.1862 58.1527 71.1211 58.2959C71.069 58.4261 71.0234 58.5628 70.9844 58.7061C70.9583 58.8493 70.9518 58.9925 70.9648 59.1357C70.9778 59.279 71.0364 59.3962 71.1406 59.4873C71.2057 59.5524 71.375 59.6436 71.6484 59.7607C71.9219 59.8649 72.2474 59.9886 72.625 60.1318C73.0156 60.262 73.4258 60.4053 73.8554 60.5615C74.2982 60.7178 74.7148 60.874 75.1054 61.0303C75.4961 61.1865 75.8346 61.3428 76.1211 61.499C76.4075 61.6553 76.5963 61.7985 76.6875 61.9287C76.7656 62.0589 76.8502 62.2347 76.9414 62.4561C77.0456 62.6644 77.1172 62.8988 77.1562 63.1592C77.2083 63.4066 77.2213 63.667 77.1953 63.9404C77.1823 64.2008 77.1107 64.4613 76.9804 64.7217C76.8502 64.9821 76.6419 65.223 76.3554 65.4443C76.082 65.6657 75.7109 65.848 75.2422 65.9912C74.6953 66.1605 74.1679 66.2061 73.6601 66.1279C73.1523 66.0498 72.6836 65.9326 72.2539 65.7764C71.8372 65.6201 71.4726 65.4704 71.1601 65.3271C70.8476 65.1709 70.6263 65.1058 70.4961 65.1318C70.3528 65.1579 70.1901 65.2295 70.0078 65.3467C69.8255 65.4639 69.6497 65.5876 69.4804 65.7178C69.3242 65.835 69.1875 65.9456 69.0703 66.0498C68.9531 66.141 68.8945 66.1735 68.8945 66.1475C68.8945 66.1214 68.914 66.0433 68.9531 65.9131C69.0052 65.7829 69.0573 65.6266 69.1094 65.4443C69.1745 65.249 69.2331 65.0407 69.2851 64.8193C69.3502 64.585 69.3958 64.3636 69.4219 64.1553C69.4479 63.986 69.4804 63.7777 69.5195 63.5303C69.5456 63.3089 69.5781 63.042 69.6172 62.7295C69.6693 62.404 69.7278 62.0133 69.7929 61.5576C69.8581 61.8962 69.9492 62.1891 70.0664 62.4365C70.1966 62.6839 70.3203 62.8988 70.4375 63.0811C70.5807 63.2894 70.7174 63.4652 70.8476 63.6084C71.0429 63.7907 71.2708 63.96 71.5312 64.1162C71.8047 64.2725 72.0781 64.4092 72.3515 64.5264C72.625 64.6305 72.8854 64.6956 73.1328 64.7217C73.3802 64.7477 73.5885 64.7217 73.7578 64.6436C73.9271 64.5654 74.0703 64.4222 74.1875 64.2139C74.3177 64.0055 74.4088 63.7777 74.4609 63.5303C74.513 63.2829 74.5325 63.0485 74.5195 62.8271C74.5065 62.5928 74.4479 62.404 74.3437 62.2607C74.2656 62.1696 74.0833 62.0524 73.7969 61.9092C73.5234 61.766 73.1914 61.6097 72.8008 61.4404C72.4232 61.2712 72.0195 61.0954 71.5898 60.9131C71.1732 60.7308 70.776 60.5485 70.3984 60.3662C70.0338 60.1709 69.7278 59.9886 69.4804 59.8193C69.2461 59.637 69.1159 59.4743 69.0898 59.3311C69.0638 59.1227 69.0443 58.8949 69.0312 58.6475C69.0182 58.387 69.0312 58.1331 69.0703 57.8857C69.1224 57.6253 69.2135 57.3779 69.3437 57.1436C69.487 56.9092 69.6953 56.7139 69.9687 56.5576C70.151 56.4535 70.3919 56.3753 70.6914 56.3232C70.9909 56.2712 71.3229 56.2451 71.6875 56.2451C72.0521 56.2321 72.4297 56.2451 72.8203 56.2842C73.2109 56.3102 73.582 56.3493 73.9336 56.4014C74.2982 56.4404 74.6237 56.4925 74.9101 56.5576C75.2096 56.6227 75.4375 56.6813 75.5937 56.7334C75.776 56.7985 75.9713 56.805 76.1797 56.7529C76.362 56.7139 76.5573 56.6292 76.7656 56.499C76.9739 56.3688 77.1888 56.1344 77.4101 55.7959Z" fill="white"/>
</g>
<defs>
<linearGradient id="paint0_linear_811_447" x1="-11.7835" y1="24.8983" x2="99.9896" y2="23.9817" gradientUnits="userSpaceOnUse">
<stop stop-color="#F9CE34"/>
<stop offset="0.500754" stop-color="#EE2A7B"/>
<stop offset="1" stop-color="#6228D7"/>
</linearGradient>
</defs>
</svg>
