<svg width="27" height="43" viewBox="0 0 27 43" fill="none" xmlns="http://www.w3.org/2000/svg">
<path fill-rule="evenodd" clip-rule="evenodd" d="M2.25942 24.6415C1.43415 23.8152 0.970604 22.6951 0.970604 21.5272C0.970604 20.3594 1.43415 19.2393 2.25942 18.413L18.8764 1.79013C19.7032 0.963799 20.8243 0.499725 21.9932 0.5C23.162 0.500275 24.2829 0.964878 25.1093 1.7916C25.9356 2.61832 26.3997 3.73944 26.3994 4.90833C26.3991 6.07721 25.9345 7.19812 25.1078 8.02445L11.605 21.5272L25.1078 35.03C25.911 35.8608 26.3557 36.9738 26.3462 38.1293C26.3367 39.2848 25.8738 40.3903 25.0571 41.2078C24.2404 42.0252 23.1353 42.4892 21.9798 42.4998C20.8243 42.5104 19.7109 42.0667 18.8794 41.2643L2.25648 24.6444L2.25942 24.6415Z" fill="white"/>
<path fill-rule="evenodd" clip-rule="evenodd" d="M2.25942 24.6415C1.43415 23.8152 0.970604 22.6951 0.970604 21.5272C0.970604 20.3594 1.43415 19.2393 2.25942 18.413L18.8764 1.79013C19.7032 0.963799 20.8243 0.499725 21.9932 0.5C23.162 0.500275 24.2829 0.964878 25.1093 1.7916C25.9356 2.61832 26.3997 3.73944 26.3994 4.90833C26.3991 6.07721 25.9345 7.19812 25.1078 8.02445L11.605 21.5272L25.1078 35.03C25.911 35.8608 26.3557 36.9738 26.3462 38.1293C26.3367 39.2848 25.8738 40.3903 25.0571 41.2078C24.2404 42.0252 23.1353 42.4892 21.9798 42.4998C20.8243 42.5104 19.7109 42.0667 18.8794 41.2643L2.25648 24.6444L2.25942 24.6415Z" fill="url(#paint0_linear_421_1320)"/>
<defs>
<linearGradient id="paint0_linear_421_1320" x1="26.3994" y1="42.5" x2="-5.1439" y2="37.2521" gradientUnits="userSpaceOnUse">
<stop stop-color="#F9CE34"/>
<stop offset="0.500754" stop-color="#EE2A7B"/>
<stop offset="1" stop-color="#6228D7"/>
</linearGradient>
</defs>
</svg>
