<svg width="27" height="43" viewBox="0 0 27 43" fill="none" xmlns="http://www.w3.org/2000/svg">
<path fill-rule="evenodd" clip-rule="evenodd" d="M25.1097 18.3585C25.935 19.1848 26.3985 20.3049 26.3985 21.4728C26.3985 22.6406 25.935 23.7607 25.1097 24.587L8.49271 41.2099C7.66599 42.0362 6.54486 42.5003 5.37598 42.5C4.20709 42.4997 3.08619 42.0351 2.25986 41.2084C1.43353 40.3817 0.969451 39.2606 0.969727 38.0917C0.970002 36.9228 1.4346 35.8019 2.26133 34.9756L15.7641 21.4728L2.26133 7.96997C1.45817 7.13919 1.01345 6.0262 1.02294 4.87072C1.03243 3.71523 1.49538 2.60969 2.31208 1.79223C3.12877 0.974758 4.23387 0.510767 5.38935 0.500185C6.54483 0.489603 7.65824 0.933278 8.48977 1.73565L25.1127 18.3556L25.1097 18.3585Z" fill="white"/>
<path fill-rule="evenodd" clip-rule="evenodd" d="M25.1097 18.3585C25.935 19.1848 26.3985 20.3049 26.3985 21.4728C26.3985 22.6406 25.935 23.7607 25.1097 24.587L8.49271 41.2099C7.66599 42.0362 6.54486 42.5003 5.37598 42.5C4.20709 42.4997 3.08619 42.0351 2.25986 41.2084C1.43353 40.3817 0.969451 39.2606 0.969727 38.0917C0.970002 36.9228 1.4346 35.8019 2.26133 34.9756L15.7641 21.4728L2.26133 7.96997C1.45817 7.13919 1.01345 6.0262 1.02294 4.87072C1.03243 3.71523 1.49538 2.60969 2.31208 1.79223C3.12877 0.974758 4.23387 0.510767 5.38935 0.500185C6.54483 0.489603 7.65824 0.933278 8.48977 1.73565L25.1127 18.3556L25.1097 18.3585Z" fill="url(#paint0_linear_421_1322)"/>
<defs>
<linearGradient id="paint0_linear_421_1322" x1="0.969727" y1="0.5" x2="32.513" y2="5.74791" gradientUnits="userSpaceOnUse">
<stop stop-color="#F9CE34"/>
<stop offset="0.500754" stop-color="#EE2A7B"/>
<stop offset="1" stop-color="#6228D7"/>
</linearGradient>
</defs>
</svg>
