<svg width="46" height="58" viewBox="0 0 46 58" fill="none" xmlns="http://www.w3.org/2000/svg">
<g filter="url(#filter0_d_421_1340)">
<path d="M13.9247 0.760817C15.2651 0.356668 16.7035 0.42381 18.0005 0.951068C19.2975 1.47833 20.3747 2.43389 21.0529 3.65869L21.2796 4.11512L23.3075 8.62122C23.9218 9.98917 24.1209 11.5074 23.8802 12.9874C23.6395 14.4675 22.9696 15.8444 21.9535 16.9472L21.5461 17.3516L18.3511 20.3322C17.7752 20.8774 18.2071 22.988 20.2902 26.5966C22.1649 29.8437 23.6904 31.36 24.4409 31.4427H24.5726L24.735 31.4121L31.0147 29.4914C31.8587 29.2326 32.7594 29.2223 33.609 29.4619C34.4587 29.7015 35.2213 30.1807 35.8057 30.8423L36.0845 31.1946L40.2414 36.9536C41.056 38.0824 41.462 39.455 41.3924 40.8453C41.3228 42.2356 40.7818 43.5608 39.8585 44.6026L39.4847 44.9886L37.8244 46.5631C36.3335 47.9751 34.4685 48.9292 32.4511 49.312C30.4337 49.6948 28.3488 49.4903 26.4443 48.7227C20.5169 46.3334 15.1316 40.8746 10.2395 32.4015C5.33826 23.907 3.30117 16.5031 4.21097 10.1621C4.48628 8.24525 5.27558 6.43879 6.49506 4.93454C7.71454 3.43028 9.31866 2.28438 11.1371 1.61854L11.7283 1.42249L13.9247 0.760817Z" fill="white"/>
<path d="M13.9247 0.760817C15.2651 0.356668 16.7035 0.42381 18.0005 0.951068C19.2975 1.47833 20.3747 2.43389 21.0529 3.65869L21.2796 4.11512L23.3075 8.62122C23.9218 9.98917 24.1209 11.5074 23.8802 12.9874C23.6395 14.4675 22.9696 15.8444 21.9535 16.9472L21.5461 17.3516L18.3511 20.3322C17.7752 20.8774 18.2071 22.988 20.2902 26.5966C22.1649 29.8437 23.6904 31.36 24.4409 31.4427H24.5726L24.735 31.4121L31.0147 29.4914C31.8587 29.2326 32.7594 29.2223 33.609 29.4619C34.4587 29.7015 35.2213 30.1807 35.8057 30.8423L36.0845 31.1946L40.2414 36.9536C41.056 38.0824 41.462 39.455 41.3924 40.8453C41.3228 42.2356 40.7818 43.5608 39.8585 44.6026L39.4847 44.9886L37.8244 46.5631C36.3335 47.9751 34.4685 48.9292 32.4511 49.312C30.4337 49.6948 28.3488 49.4903 26.4443 48.7227C20.5169 46.3334 15.1316 40.8746 10.2395 32.4015C5.33826 23.907 3.30117 16.5031 4.21097 10.1621C4.48628 8.24525 5.27558 6.43879 6.49506 4.93454C7.71454 3.43028 9.31866 2.28438 11.1371 1.61854L11.7283 1.42249L13.9247 0.760817Z" fill="url(#paint0_linear_421_1340)"/>
</g>
<defs>
<filter id="filter0_d_421_1340" x="0" y="0.5" width="45.4004" height="57" filterUnits="userSpaceOnUse" color-interpolation-filters="sRGB">
<feFlood flood-opacity="0" result="BackgroundImageFix"/>
<feColorMatrix in="SourceAlpha" type="matrix" values="0 0 0 0 0 0 0 0 0 0 0 0 0 0 0 0 0 0 127 0" result="hardAlpha"/>
<feOffset dy="4"/>
<feGaussianBlur stdDeviation="2"/>
<feComposite in2="hardAlpha" operator="out"/>
<feColorMatrix type="matrix" values="0 0 0 0 0 0 0 0 0 0 0 0 0 0 0 0 0 0 0.25 0"/>
<feBlend mode="normal" in2="BackgroundImageFix" result="effect1_dropShadow_421_1340"/>
<feBlend mode="normal" in="SourceGraphic" in2="effect1_dropShadow_421_1340" result="shape"/>
</filter>
<linearGradient id="paint0_linear_421_1340" x1="4" y1="0.5" x2="49.6683" y2="10.0784" gradientUnits="userSpaceOnUse">
<stop stop-color="#F9CE34"/>
<stop offset="0.500754" stop-color="#EE2A7B"/>
<stop offset="1" stop-color="#6228D7"/>
</linearGradient>
</defs>
</svg>
