<svg width="52" height="44" viewBox="0 0 52 44" fill="none" xmlns="http://www.w3.org/2000/svg">
<rect x="0.5" y="0.5" width="51" height="43" rx="6.5" stroke="white"/>
<rect x="0.5" y="0.5" width="51" height="43" rx="6.5" stroke="url(#paint0_linear_421_1879)"/>
<path d="M35.0974 20.6352L26 27.46L16.9026 20.6352L14.9825 19.1948V21.5951V34.3046H10.454C10.2893 34.3046 10.1261 34.2722 9.97394 34.2091C9.82175 34.146 9.68347 34.0536 9.56702 33.9371C9.45056 33.8206 9.35821 33.6822 9.29524 33.53C9.23226 33.3778 9.1999 33.2146 9.2 33.0499V33.0491V12.1856C9.2 10.1394 11.5348 8.97262 13.1701 10.1993C13.1702 10.1994 13.1702 10.1994 13.1703 10.1995L15.4621 11.9198L15.4626 11.9202L25.2801 19.2822L26.0001 19.8222L26.7201 19.282L36.5371 11.9174L36.5376 11.917L38.8291 10.1999L38.8296 10.1996C40.4641 8.97346 42.8 10.1401 42.8 12.1856V33.0491C42.8 33.7424 42.2393 34.3031 41.546 34.3031H37.0175V21.5951V19.1948L35.0974 20.6352Z" fill="white"/>
<path d="M35.0974 20.6352L26 27.46L16.9026 20.6352L14.9825 19.1948V21.5951V34.3046H10.454C10.2893 34.3046 10.1261 34.2722 9.97394 34.2091C9.82175 34.146 9.68347 34.0536 9.56702 33.9371C9.45056 33.8206 9.35821 33.6822 9.29524 33.53C9.23226 33.3778 9.1999 33.2146 9.2 33.0499V33.0491V12.1856C9.2 10.1394 11.5348 8.97262 13.1701 10.1993C13.1702 10.1994 13.1702 10.1994 13.1703 10.1995L15.4621 11.9198L15.4626 11.9202L25.2801 19.2822L26.0001 19.8222L26.7201 19.282L36.5371 11.9174L36.5376 11.917L38.8291 10.1999L38.8296 10.1996C40.4641 8.97346 42.8 10.1401 42.8 12.1856V33.0491C42.8 33.7424 42.2393 34.3031 41.546 34.3031H37.0175V21.5951V19.1948L35.0974 20.6352Z" fill="url(#paint1_linear_421_1879)"/>
<path d="M35.0974 20.6352L26 27.46L16.9026 20.6352L14.9825 19.1948V21.5951V34.3046H10.454C10.2893 34.3046 10.1261 34.2722 9.97394 34.2091C9.82175 34.146 9.68347 34.0536 9.56702 33.9371C9.45056 33.8206 9.35821 33.6822 9.29524 33.53C9.23226 33.3778 9.1999 33.2146 9.2 33.0499V33.0491V12.1856C9.2 10.1394 11.5348 8.97262 13.1701 10.1993C13.1702 10.1994 13.1702 10.1994 13.1703 10.1995L15.4621 11.9198L15.4626 11.9202L25.2801 19.2822L26.0001 19.8222L26.7201 19.282L36.5371 11.9174L36.5376 11.917L38.8291 10.1999L38.8296 10.1996C40.4641 8.97346 42.8 10.1401 42.8 12.1856V33.0491C42.8 33.7424 42.2393 34.3031 41.546 34.3031H37.0175V21.5951V19.1948L35.0974 20.6352Z" stroke="black" stroke-width="2.4"/>
<defs>
<linearGradient id="paint0_linear_421_1879" x1="0" y1="0" x2="59.965" y2="19.4738" gradientUnits="userSpaceOnUse">
<stop stop-color="#F9CE34"/>
<stop offset="0.500754" stop-color="#EE2A7B"/>
<stop offset="1" stop-color="#6228D7"/>
</linearGradient>
<linearGradient id="paint1_linear_421_1879" x1="8" y1="8.49634" x2="48.4639" y2="23.3173" gradientUnits="userSpaceOnUse">
<stop stop-color="#F9CE34"/>
<stop offset="0.500754" stop-color="#EE2A7B"/>
<stop offset="1" stop-color="#6228D7"/>
</linearGradient>
</defs>
</svg>
