<svg width="84" height="106" viewBox="0 0 84 106" fill="none" xmlns="http://www.w3.org/2000/svg">
<g filter="url(#filter0_d_595_563)">
<path d="M18.378 2.28283L24.0692 0.571086C27.1869 -0.36904 30.5401 -0.142727 33.5032 1.2078C36.4662 2.55832 38.8367 4.94079 40.1723 7.91063L44.5711 17.6934C45.7195 20.2479 46.0392 23.0978 45.4856 25.8432C44.932 28.5886 43.5327 31.0918 41.4841 33.0016L34.1934 39.795C33.9804 39.9934 33.8455 40.2616 33.813 40.5509C33.5984 42.4869 34.9103 46.2567 37.9387 51.4992C40.1333 55.308 42.1279 57.9853 43.8201 59.4825C45.0052 60.531 45.6538 60.7553 45.9318 60.6773L55.7341 57.6781C58.411 56.8593 61.277 56.8987 63.9304 57.7907C66.5838 58.6828 68.8916 60.3828 70.5302 62.6524L76.7725 71.3135C78.6728 73.9469 79.5531 77.1803 79.25 80.4135C78.9468 83.6467 77.4808 86.6601 75.1241 88.8943L70.7984 92.9908C68.5052 95.1624 65.6886 96.7032 62.6231 97.463C59.5575 98.2227 56.3474 98.1756 53.3054 97.3262C39.8748 93.576 27.8341 82.2424 17.0466 63.5595C6.24947 44.8522 2.45534 28.7393 5.95686 15.216C6.74288 12.1746 8.29911 9.38684 10.4755 7.12156C12.652 4.85628 15.3704 3.18983 18.378 2.28283ZM20.4945 9.29076C18.6896 9.83357 17.0549 10.8322 15.748 12.1903C14.4411 13.5485 13.5061 15.2203 13.0331 17.0448C10.0972 28.4175 13.4573 42.7015 23.3864 59.9019C33.3058 77.0779 43.981 87.1289 55.2805 90.2842C57.1058 90.7933 59.0318 90.821 60.871 90.3646C62.7102 89.9082 64.3998 88.9833 65.7753 87.68L70.0962 83.5835C71.1681 82.5681 71.8351 81.1981 71.9733 79.7281C72.1114 78.258 71.7112 76.7878 70.8472 75.5905L64.6049 66.9342C63.86 65.9013 62.8104 65.1277 61.6034 64.7219C60.3964 64.316 59.0925 64.2984 57.875 64.6714L48.0483 67.6803C42.3425 69.3775 37.1682 64.7884 31.6087 55.1568C27.8536 48.6707 26.1077 43.6476 26.5466 39.7413C26.7709 37.7126 27.717 35.8399 29.2044 34.4451L36.4952 27.6518C37.426 26.7832 38.0614 25.645 38.3124 24.397C38.5635 23.1489 38.4174 21.8535 37.8948 20.6926L33.5009 10.9098C32.8937 9.5599 31.8161 8.47699 30.4692 7.86319C29.1222 7.24939 27.598 7.14665 26.1808 7.57413L20.4945 9.29076Z" fill="white"/>
<path d="M18.378 2.28283L24.0692 0.571086C27.1869 -0.36904 30.5401 -0.142727 33.5032 1.2078C36.4662 2.55832 38.8367 4.94079 40.1723 7.91063L44.5711 17.6934C45.7195 20.2479 46.0392 23.0978 45.4856 25.8432C44.932 28.5886 43.5327 31.0918 41.4841 33.0016L34.1934 39.795C33.9804 39.9934 33.8455 40.2616 33.813 40.5509C33.5984 42.4869 34.9103 46.2567 37.9387 51.4992C40.1333 55.308 42.1279 57.9853 43.8201 59.4825C45.0052 60.531 45.6538 60.7553 45.9318 60.6773L55.7341 57.6781C58.411 56.8593 61.277 56.8987 63.9304 57.7907C66.5838 58.6828 68.8916 60.3828 70.5302 62.6524L76.7725 71.3135C78.6728 73.9469 79.5531 77.1803 79.25 80.4135C78.9468 83.6467 77.4808 86.6601 75.1241 88.8943L70.7984 92.9908C68.5052 95.1624 65.6886 96.7032 62.6231 97.463C59.5575 98.2227 56.3474 98.1756 53.3054 97.3262C39.8748 93.576 27.8341 82.2424 17.0466 63.5595C6.24947 44.8522 2.45534 28.7393 5.95686 15.216C6.74288 12.1746 8.29911 9.38684 10.4755 7.12156C12.652 4.85628 15.3704 3.18983 18.378 2.28283ZM20.4945 9.29076C18.6896 9.83357 17.0549 10.8322 15.748 12.1903C14.4411 13.5485 13.5061 15.2203 13.0331 17.0448C10.0972 28.4175 13.4573 42.7015 23.3864 59.9019C33.3058 77.0779 43.981 87.1289 55.2805 90.2842C57.1058 90.7933 59.0318 90.821 60.871 90.3646C62.7102 89.9082 64.3998 88.9833 65.7753 87.68L70.0962 83.5835C71.1681 82.5681 71.8351 81.1981 71.9733 79.7281C72.1114 78.258 71.7112 76.7878 70.8472 75.5905L64.6049 66.9342C63.86 65.9013 62.8104 65.1277 61.6034 64.7219C60.3964 64.316 59.0925 64.2984 57.875 64.6714L48.0483 67.6803C42.3425 69.3775 37.1682 64.7884 31.6087 55.1568C27.8536 48.6707 26.1077 43.6476 26.5466 39.7413C26.7709 37.7126 27.717 35.8399 29.2044 34.4451L36.4952 27.6518C37.426 26.7832 38.0614 25.645 38.3124 24.397C38.5635 23.1489 38.4174 21.8535 37.8948 20.6926L33.5009 10.9098C32.8937 9.5599 31.8161 8.47699 30.4692 7.86319C29.1222 7.24939 27.598 7.14665 26.1808 7.57413L20.4945 9.29076Z" fill="url(#paint0_linear_595_563)"/>
</g>
<defs>
<filter id="filter0_d_595_563" x="0.692383" y="0" width="82.6162" height="106" filterUnits="userSpaceOnUse" color-interpolation-filters="sRGB">
<feFlood flood-opacity="0" result="BackgroundImageFix"/>
<feColorMatrix in="SourceAlpha" type="matrix" values="0 0 0 0 0 0 0 0 0 0 0 0 0 0 0 0 0 0 127 0" result="hardAlpha"/>
<feOffset dy="4"/>
<feGaussianBlur stdDeviation="2"/>
<feComposite in2="hardAlpha" operator="out"/>
<feColorMatrix type="matrix" values="0 0 0 0 0 0 0 0 0 0 0 0 0 0 0 0 0 0 0.25 0"/>
<feBlend mode="normal" in2="BackgroundImageFix" result="effect1_dropShadow_595_563"/>
<feBlend mode="normal" in="SourceGraphic" in2="effect1_dropShadow_595_563" result="shape"/>
</filter>
<linearGradient id="paint0_linear_595_563" x1="4.69238" y1="0" x2="95.8232" y2="19.0667" gradientUnits="userSpaceOnUse">
<stop stop-color="#F9CE34"/>
<stop offset="0.500754" stop-color="#EE2A7B"/>
<stop offset="1" stop-color="#6228D7"/>
</linearGradient>
</defs>
</svg>
