<svg width="82" height="100" viewBox="0 0 82 100" fill="none" xmlns="http://www.w3.org/2000/svg">
<g filter="url(#filter0_d_595_562)">
<path fill-rule="evenodd" clip-rule="evenodd" d="M37.6731 90.7492C37.6731 90.7492 4.94141 63.1828 4.94141 36.0581C4.94141 26.4949 8.74037 17.3234 15.5026 10.5612C22.2648 3.79897 31.4363 0 40.9995 0C50.5627 0 59.7342 3.79897 66.4964 10.5612C73.2586 17.3234 77.0576 26.4949 77.0576 36.0581C77.0576 63.1828 44.3259 90.7492 44.3259 90.7492C42.5049 92.4259 39.5076 92.4079 37.6731 90.7492ZM40.9995 51.8335C43.0712 51.8335 45.1225 51.4255 47.0365 50.6327C48.9505 49.8399 50.6895 48.6779 52.1544 47.213C53.6193 45.7481 54.7813 44.0091 55.5741 42.0951C56.3669 40.1811 56.7749 38.1298 56.7749 36.0581C56.7749 33.9864 56.3669 31.9351 55.5741 30.0211C54.7813 28.1072 53.6193 26.3681 52.1544 24.9032C50.6895 23.4383 48.9505 22.2763 47.0365 21.4835C45.1225 20.6907 43.0712 20.2827 40.9995 20.2827C36.8156 20.2827 32.8031 21.9447 29.8446 24.9032C26.8861 27.8617 25.2241 31.8742 25.2241 36.0581C25.2241 40.242 26.8861 44.2545 29.8446 47.213C32.8031 50.1715 36.8156 51.8335 40.9995 51.8335Z" fill="white"/>
<path fill-rule="evenodd" clip-rule="evenodd" d="M37.6731 90.7492C37.6731 90.7492 4.94141 63.1828 4.94141 36.0581C4.94141 26.4949 8.74037 17.3234 15.5026 10.5612C22.2648 3.79897 31.4363 0 40.9995 0C50.5627 0 59.7342 3.79897 66.4964 10.5612C73.2586 17.3234 77.0576 26.4949 77.0576 36.0581C77.0576 63.1828 44.3259 90.7492 44.3259 90.7492C42.5049 92.4259 39.5076 92.4079 37.6731 90.7492ZM40.9995 51.8335C43.0712 51.8335 45.1225 51.4255 47.0365 50.6327C48.9505 49.8399 50.6895 48.6779 52.1544 47.213C53.6193 45.7481 54.7813 44.0091 55.5741 42.0951C56.3669 40.1811 56.7749 38.1298 56.7749 36.0581C56.7749 33.9864 56.3669 31.9351 55.5741 30.0211C54.7813 28.1072 53.6193 26.3681 52.1544 24.9032C50.6895 23.4383 48.9505 22.2763 47.0365 21.4835C45.1225 20.6907 43.0712 20.2827 40.9995 20.2827C36.8156 20.2827 32.8031 21.9447 29.8446 24.9032C26.8861 27.8617 25.2241 31.8742 25.2241 36.0581C25.2241 40.242 26.8861 44.2545 29.8446 47.213C32.8031 50.1715 36.8156 51.8335 40.9995 51.8335Z" fill="url(#paint0_linear_595_562)"/>
</g>
<defs>
<filter id="filter0_d_595_562" x="0.941406" y="0" width="80.1162" height="100" filterUnits="userSpaceOnUse" color-interpolation-filters="sRGB">
<feFlood flood-opacity="0" result="BackgroundImageFix"/>
<feColorMatrix in="SourceAlpha" type="matrix" values="0 0 0 0 0 0 0 0 0 0 0 0 0 0 0 0 0 0 127 0" result="hardAlpha"/>
<feOffset dy="4"/>
<feGaussianBlur stdDeviation="2"/>
<feComposite in2="hardAlpha" operator="out"/>
<feColorMatrix type="matrix" values="0 0 0 0 0 0 0 0 0 0 0 0 0 0 0 0 0 0 0.25 0"/>
<feBlend mode="normal" in2="BackgroundImageFix" result="effect1_dropShadow_595_562"/>
<feBlend mode="normal" in="SourceGraphic" in2="effect1_dropShadow_595_562" result="shape"/>
</filter>
<linearGradient id="paint0_linear_595_562" x1="4.94141" y1="0" x2="92.7982" y2="18.9244" gradientUnits="userSpaceOnUse">
<stop stop-color="#F9CE34"/>
<stop offset="0.500754" stop-color="#EE2A7B"/>
<stop offset="1" stop-color="#6228D7"/>
</linearGradient>
</defs>
</svg>
