<svg width="86" height="85" viewBox="0 0 86 85" fill="none" xmlns="http://www.w3.org/2000/svg">
<path d="M43.0002 0C66.2935 0 85.1753 18.8818 85.1753 42.175C85.1753 65.4683 66.2935 84.3501 43.0002 84.3501C19.707 84.3501 0.825195 65.4683 0.825195 42.175C0.825195 18.8818 19.707 0 43.0002 0ZM43.0002 8.43501C34.0518 8.43501 25.4699 11.9898 19.1424 18.3172C12.8149 24.6447 9.2602 33.2266 9.2602 42.175C9.2602 51.1235 12.8149 59.7054 19.1424 66.0328C25.4699 72.3603 34.0518 75.9151 43.0002 75.9151C51.9487 75.9151 60.5306 72.3603 66.858 66.0328C73.1855 59.7054 76.7403 51.1235 76.7403 42.175C76.7403 33.2266 73.1855 24.6447 66.858 18.3172C60.5306 11.9898 51.9487 8.43501 43.0002 8.43501ZM43.0002 16.87C44.0332 16.8702 45.0303 17.2494 45.8022 17.9358C46.5742 18.6223 47.0674 19.5682 47.1882 20.5941L47.2177 21.0875V40.429L58.6345 51.8458C59.3909 52.6048 59.8301 53.6232 59.8628 54.6942C59.8955 55.7652 59.5193 56.8086 58.8106 57.6123C58.1019 58.416 57.1139 58.9198 56.0472 59.0214C54.9805 59.1231 53.9151 58.8148 53.0674 58.1594L52.671 57.8093L40.0185 45.1568C39.363 44.5008 38.942 43.647 38.8207 42.7275L38.7827 42.175V21.0875C38.7827 19.969 39.2271 18.8962 40.018 18.1053C40.8089 17.3144 41.8817 16.87 43.0002 16.87Z" fill="white"/>
<path d="M43.0002 0C66.2935 0 85.1753 18.8818 85.1753 42.175C85.1753 65.4683 66.2935 84.3501 43.0002 84.3501C19.707 84.3501 0.825195 65.4683 0.825195 42.175C0.825195 18.8818 19.707 0 43.0002 0ZM43.0002 8.43501C34.0518 8.43501 25.4699 11.9898 19.1424 18.3172C12.8149 24.6447 9.2602 33.2266 9.2602 42.175C9.2602 51.1235 12.8149 59.7054 19.1424 66.0328C25.4699 72.3603 34.0518 75.9151 43.0002 75.9151C51.9487 75.9151 60.5306 72.3603 66.858 66.0328C73.1855 59.7054 76.7403 51.1235 76.7403 42.175C76.7403 33.2266 73.1855 24.6447 66.858 18.3172C60.5306 11.9898 51.9487 8.43501 43.0002 8.43501ZM43.0002 16.87C44.0332 16.8702 45.0303 17.2494 45.8022 17.9358C46.5742 18.6223 47.0674 19.5682 47.1882 20.5941L47.2177 21.0875V40.429L58.6345 51.8458C59.3909 52.6048 59.8301 53.6232 59.8628 54.6942C59.8955 55.7652 59.5193 56.8086 58.8106 57.6123C58.1019 58.416 57.1139 58.9198 56.0472 59.0214C54.9805 59.1231 53.9151 58.8148 53.0674 58.1594L52.671 57.8093L40.0185 45.1568C39.363 44.5008 38.942 43.647 38.8207 42.7275L38.7827 42.175V21.0875C38.7827 19.969 39.2271 18.8962 40.018 18.1053C40.8089 17.3144 41.8817 16.87 43.0002 16.87Z" fill="url(#paint0_linear_595_564)"/>
<defs>
<linearGradient id="paint0_linear_595_564" x1="-11.402" y1="23.4306" x2="97.25" y2="22.5396" gradientUnits="userSpaceOnUse">
<stop stop-color="#F9CE34"/>
<stop offset="0.500754" stop-color="#EE2A7B"/>
<stop offset="1" stop-color="#6228D7"/>
</linearGradient>
</defs>
</svg>
