<svg width="43" height="38" viewBox="0 0 43 38" fill="none" xmlns="http://www.w3.org/2000/svg">
<path d="M32.2626 12.0706L15.6525 6.63522L15.6524 6.63519C15.0056 6.42342 14.469 5.96334 14.1599 5.35675C13.8509 4.75016 13.794 4.04564 14.0029 3.39787L14.0029 3.39786C14.2118 2.74994 14.6696 2.21189 15.276 1.9029C15.8824 1.5939 16.5868 1.53986 17.2338 1.75167L39.7206 9.11347C39.7208 9.11353 39.7209 9.11359 39.7211 9.11365L39.7214 9.11375L39.502 9.78392C39.7345 9.8597 39.95 9.98068 40.1361 10.1399C40.3221 10.2992 40.4752 10.4935 40.5865 10.7119C40.6977 10.9302 40.765 11.1683 40.7845 11.4125C40.8039 11.6566 40.7751 11.902 40.6998 12.1347L32.2626 12.0706ZM32.2626 12.0706L3.05693 26.9516C2.45105 27.2603 1.99375 27.7979 1.78501 28.4452C1.57632 29.0924 1.6331 29.7962 1.94189 30.4023C2.25068 31.0083 2.78675 31.468 3.433 31.6795C4.07939 31.8912 4.78309 31.8372 5.38897 31.5285L34.5946 16.6474L29.2287 33.2801L29.2287 33.2802C29.0198 33.9279 29.0767 34.6325 29.3857 35.2391C29.6948 35.8456 30.2314 36.3057 30.8782 36.5175C31.5252 36.7293 32.2295 36.6753 32.836 36.3663C33.4424 36.0573 33.9001 35.5192 34.1091 34.8713L41.3706 12.3519C41.3707 12.3518 41.3708 12.3516 41.3708 12.3514L32.2626 12.0706Z" fill="white"/>
<path d="M32.2626 12.0706L15.6525 6.63522L15.6524 6.63519C15.0056 6.42342 14.469 5.96334 14.1599 5.35675C13.8509 4.75016 13.794 4.04564 14.0029 3.39787L14.0029 3.39786C14.2118 2.74994 14.6696 2.21189 15.276 1.9029C15.8824 1.5939 16.5868 1.53986 17.2338 1.75167L39.7206 9.11347C39.7208 9.11353 39.7209 9.11359 39.7211 9.11365L39.7214 9.11375L39.502 9.78392C39.7345 9.8597 39.95 9.98068 40.1361 10.1399C40.3221 10.2992 40.4752 10.4935 40.5865 10.7119C40.6977 10.9302 40.765 11.1683 40.7845 11.4125C40.8039 11.6566 40.7751 11.902 40.6998 12.1347L32.2626 12.0706ZM32.2626 12.0706L3.05693 26.9516C2.45105 27.2603 1.99375 27.7979 1.78501 28.4452C1.57632 29.0924 1.6331 29.7962 1.94189 30.4023C2.25068 31.0083 2.78675 31.468 3.433 31.6795C4.07939 31.8912 4.78309 31.8372 5.38897 31.5285L34.5946 16.6474L29.2287 33.2801L29.2287 33.2802C29.0198 33.9279 29.0767 34.6325 29.3857 35.2391C29.6948 35.8456 30.2314 36.3057 30.8782 36.5175C31.5252 36.7293 32.2295 36.6753 32.836 36.3663C33.4424 36.0573 33.9001 35.5192 34.1091 34.8713L41.3706 12.3519C41.3707 12.3518 41.3708 12.3516 41.3708 12.3514L32.2626 12.0706Z" fill="url(#paint0_linear_580_532)"/>
<path d="M32.2626 12.0706L15.6525 6.63522L15.6524 6.63519C15.0056 6.42342 14.469 5.96334 14.1599 5.35675C13.8509 4.75016 13.794 4.04564 14.0029 3.39787L14.0029 3.39786C14.2118 2.74994 14.6696 2.21189 15.276 1.9029C15.8824 1.5939 16.5868 1.53986 17.2338 1.75167L39.7206 9.11347C39.7208 9.11353 39.7209 9.11359 39.7211 9.11365L39.7214 9.11375L39.502 9.78392C39.7345 9.8597 39.95 9.98068 40.1361 10.1399C40.3221 10.2992 40.4752 10.4935 40.5865 10.7119C40.6977 10.9302 40.765 11.1683 40.7845 11.4125C40.8039 11.6566 40.7751 11.902 40.6998 12.1347L32.2626 12.0706ZM32.2626 12.0706L3.05693 26.9516C2.45105 27.2603 1.99375 27.7979 1.78501 28.4452C1.57632 29.0924 1.6331 29.7962 1.94189 30.4023C2.25068 31.0083 2.78675 31.468 3.433 31.6795C4.07939 31.8912 4.78309 31.8372 5.38897 31.5285L34.5946 16.6474L29.2287 33.2801L29.2287 33.2802C29.0198 33.9279 29.0767 34.6325 29.3857 35.2391C29.6948 35.8456 30.2314 36.3057 30.8782 36.5175C31.5252 36.7293 32.2295 36.6753 32.836 36.3663C33.4424 36.0573 33.9001 35.5192 34.1091 34.8713L41.3706 12.3519C41.3707 12.3518 41.3708 12.3516 41.3708 12.3514L32.2626 12.0706Z" stroke="white" stroke-width="1.41033"/>
<path d="M32.2626 12.0706L15.6525 6.63522L15.6524 6.63519C15.0056 6.42342 14.469 5.96334 14.1599 5.35675C13.8509 4.75016 13.794 4.04564 14.0029 3.39787L14.0029 3.39786C14.2118 2.74994 14.6696 2.21189 15.276 1.9029C15.8824 1.5939 16.5868 1.53986 17.2338 1.75167L39.7206 9.11347C39.7208 9.11353 39.7209 9.11359 39.7211 9.11365L39.7214 9.11375L39.502 9.78392C39.7345 9.8597 39.95 9.98068 40.1361 10.1399C40.3221 10.2992 40.4752 10.4935 40.5865 10.7119C40.6977 10.9302 40.765 11.1683 40.7845 11.4125C40.8039 11.6566 40.7751 11.902 40.6998 12.1347L32.2626 12.0706ZM32.2626 12.0706L3.05693 26.9516C2.45105 27.2603 1.99375 27.7979 1.78501 28.4452C1.57632 29.0924 1.6331 29.7962 1.94189 30.4023C2.25068 31.0083 2.78675 31.468 3.433 31.6795C4.07939 31.8912 4.78309 31.8372 5.38897 31.5285L34.5946 16.6474L29.2287 33.2801L29.2287 33.2802C29.0198 33.9279 29.0767 34.6325 29.3857 35.2391C29.6948 35.8456 30.2314 36.3057 30.8782 36.5175C31.5252 36.7293 32.2295 36.6753 32.836 36.3663C33.4424 36.0573 33.9001 35.5192 34.1091 34.8713L41.3706 12.3519C41.3707 12.3518 41.3708 12.3516 41.3708 12.3514L32.2626 12.0706Z" stroke="url(#paint1_linear_580_532)" stroke-width="1.41033"/>
<defs>
<linearGradient id="paint0_linear_580_532" x1="-6.7005" y1="25.5107" x2="42.0333" y2="0.100543" gradientUnits="userSpaceOnUse">
<stop stop-color="#F9CE34"/>
<stop offset="0.500754" stop-color="#EE2A7B"/>
<stop offset="1" stop-color="#6228D7"/>
</linearGradient>
<linearGradient id="paint1_linear_580_532" x1="-6.7005" y1="25.5107" x2="42.0333" y2="0.100543" gradientUnits="userSpaceOnUse">
<stop stop-color="#F9CE34"/>
<stop offset="0.500754" stop-color="#EE2A7B"/>
<stop offset="1" stop-color="#6228D7"/>
</linearGradient>
</defs>
</svg>
